<svg xmlns="http://www.w3.org/2000/svg" version="1.1" xmlns:xlink="http://www.w3.org/1999/xlink" width="1500" height="1500" viewBox="0 0 1500 1500"><rect width="1500" height="1500" x="0" y="0" id="background" stroke="transparent" fill="#ffffff"></rect><svg xml:space="preserve" width="1000" height="1000" data-version="2" data-id="lg_PocmrcRw80vKujavGe" viewBox="0 0 541 211" x="250" y="250"><rect width="100%" height="100%" fill="transparent"></rect><path fill="#ff5630" d="M8.975 154.45V46.95h19.35v107.5Zm9.67-126.85q-5.37 0-9.14-3.76-3.76-3.77-3.76-9.14 0-5.55 3.76-9.23 3.77-3.67 9.14-3.67 5.56 0 9.23 3.67 3.67 3.68 3.67 9.23 0 5.37-3.67 9.14-3.67 3.76-9.23 3.76"></path><rect width="25.8" height="152.65" x="-12.9" y="-76.33" fill="none" rx="0" ry="0" transform="translate(19.14 78.63)"></rect><path fill="#ff5630" d="M84.395 154.45V46.95h17.91v17.38q5.92-9.5 15.32-14.51 9.41-5.02 20.34-5.02 11.47 0 21.23 5.64 9.76 5.65 15.86 16.31 6.09 10.66 6.09 25.89v61.81h-19.35V95.32q0-12.72-7.62-22.48-7.61-9.77-21.41-9.77-11.28 0-20.15 8.16-8.87 8.15-8.87 23.56v59.66Z"></path><rect width="96.75" height="109.65" x="-48.38" y="-54.83" fill="none" rx="0" ry="0" transform="translate(133.27 100.13)"></rect><path fill="#ff5630" d="M244.025 154.45V63.07h-24.37V46.95h24.91V11.12h18.27v35.83h26.7v16.12h-26.16v91.38Z"></path><rect width="69.88" height="143.33" x="-34.94" y="-71.67" fill="none" rx="0" ry="0" transform="translate(255.1 83.28)"></rect><path fill="#ff5630" d="M333.775 154.45V46.95h17.92v19.71q5.73-9.5 15.23-15.14 9.5-5.65 22.57-5.65l4.84 19.35q-3.4-1.07-7.88-1.07-15.05 0-24.19 9.59-9.14 9.58-9.14 27.32v53.39Z"></path><rect width="60.56" height="108.58" x="-30.28" y="-54.29" fill="none" rx="0" ry="0" transform="translate(364.56 100.66)"></rect><path fill="#ff5630" d="M514.905 208.2v-66.47q-7.16 6.63-16.48 10.39-9.32 3.76-19.89 3.76-14.69 0-26.87-7.43-12.19-7.44-19.44-19.98-7.26-12.54-7.26-27.77t7.26-27.77q7.25-12.54 19.44-19.98 12.18-7.43 26.87-7.43 11.11 0 20.88 4.12 9.76 4.12 16.93 11.46V46.95h17.91V208.2Zm-33.86-69.88q10.21 0 18.55-5.1 8.33-5.11 13.25-13.62 4.93-8.51 4.93-18.9 0-10.39-4.93-18.9-4.92-8.51-13.25-13.62-8.34-5.11-18.55-5.11t-18.54 5.11q-8.33 5.11-13.26 13.62-4.93 8.51-4.93 18.9 0 10.39 4.93 18.9 4.93 8.51 13.26 13.62 8.33 5.1 18.54 5.1"></path><rect width="109.29" height="162.68" x="-54.65" y="-81.34" fill="none" rx="0" ry="0" transform="translate(480.11 127.36)"></rect></svg></svg>